<svg xmlns="http://www.w3.org/2000/svg" viewBox="0 0 1440 320"><path fill="#3e4551" fill-opacity="0.9" d="M0,160L34.3,170.7C68.6,181,137,203,206,202.7C274.3,203,343,181,411,160C480,139,549,117,617,138.7C685.7,160,754,224,823,245.3C891.4,267,960,245,1029,202.7C1097.1,160,1166,96,1234,96C1302.9,96,1371,160,1406,192L1440,224L1440,320L1405.7,320C1371.4,320,1303,320,1234,320C1165.7,320,1097,320,1029,320C960,320,891,320,823,320C754.3,320,686,320,617,320C548.6,320,480,320,411,320C342.9,320,274,320,206,320C137.1,320,69,320,34,320L0,320Z" data-darkreader-inline-fill="" style="--darkreader-inline-fill:#323639;"></path></svg>