<svg width="184" height="56" viewBox="0 0 184 56" fill="none" xmlns="http://www.w3.org/2000/svg">
<rect x="0.294556" y="0.742004" width="182.715" height="55.127" rx="4" fill="url(#paint0_linear_93_81)"/>
<path d="M28.9092 29.142C28.9092 28.0433 29.1546 27.062 29.6452 26.198C30.1466 25.3233 30.8239 24.646 31.6772 24.166C32.5412 23.6753 33.5066 23.43 34.5732 23.43C35.8212 23.43 36.9146 23.75 37.8532 24.39C38.7919 25.03 39.4479 25.9153 39.8212 27.046H37.2452C36.9892 26.5127 36.6266 26.1127 36.1572 25.846C35.6986 25.5793 35.1652 25.446 34.5572 25.446C33.9066 25.446 33.3252 25.6007 32.8132 25.91C32.3119 26.2087 31.9172 26.6353 31.6292 27.19C31.3519 27.7447 31.2132 28.3953 31.2132 29.142C31.2132 29.878 31.3519 30.5287 31.6292 31.094C31.9172 31.6487 32.3119 32.0807 32.8132 32.39C33.3252 32.6887 33.9066 32.838 34.5572 32.838C35.1652 32.838 35.6986 32.7047 36.1572 32.438C36.6266 32.1607 36.9892 31.7553 37.2452 31.222H39.8212C39.4479 32.3633 38.7919 33.254 37.8532 33.894C36.9252 34.5233 35.8319 34.838 34.5732 34.838C33.5066 34.838 32.5412 34.598 31.6772 34.118C30.8239 33.6273 30.1466 32.95 29.6452 32.086C29.1546 31.222 28.9092 30.2407 28.9092 29.142ZM45.6705 34.886C44.8172 34.886 44.0492 34.6993 43.3665 34.326C42.6838 33.942 42.1452 33.4033 41.7505 32.71C41.3665 32.0167 41.1745 31.2167 41.1745 30.31C41.1745 29.4033 41.3718 28.6033 41.7665 27.91C42.1718 27.2167 42.7212 26.6833 43.4145 26.31C44.1078 25.926 44.8812 25.734 45.7345 25.734C46.5878 25.734 47.3612 25.926 48.0545 26.31C48.7478 26.6833 49.2918 27.2167 49.6865 27.91C50.0918 28.6033 50.2945 29.4033 50.2945 30.31C50.2945 31.2167 50.0865 32.0167 49.6705 32.71C49.2652 33.4033 48.7105 33.942 48.0065 34.326C47.3132 34.6993 46.5345 34.886 45.6705 34.886ZM45.6705 32.934C46.0758 32.934 46.4545 32.838 46.8065 32.646C47.1692 32.4433 47.4572 32.1447 47.6705 31.75C47.8838 31.3553 47.9905 30.8753 47.9905 30.31C47.9905 29.4673 47.7665 28.822 47.3185 28.374C46.8812 27.9153 46.3425 27.686 45.7025 27.686C45.0625 27.686 44.5238 27.9153 44.0865 28.374C43.6598 28.822 43.4465 29.4673 43.4465 30.31C43.4465 31.1527 43.6545 31.8033 44.0705 32.262C44.4972 32.71 45.0305 32.934 45.6705 32.934ZM62.9456 25.75C64.0336 25.75 64.9083 26.086 65.5696 26.758C66.2416 27.4193 66.5776 28.3473 66.5776 29.542V34.742H64.3376V29.846C64.3376 29.1527 64.1616 28.6247 63.8096 28.262C63.4576 27.8887 62.9776 27.702 62.3696 27.702C61.7616 27.702 61.2763 27.8887 60.9136 28.262C60.5616 28.6247 60.3856 29.1527 60.3856 29.846V34.742H58.1456V29.846C58.1456 29.1527 57.9696 28.6247 57.6176 28.262C57.2656 27.8887 56.7856 27.702 56.1776 27.702C55.559 27.702 55.0683 27.8887 54.7056 28.262C54.3536 28.6247 54.1776 29.1527 54.1776 29.846V34.742H51.9376V25.878H54.1776V26.95C54.4656 26.5767 54.8336 26.2833 55.2816 26.07C55.7403 25.8567 56.2416 25.75 56.7856 25.75C57.479 25.75 58.0976 25.8993 58.6416 26.198C59.1856 26.486 59.607 26.902 59.9056 27.446C60.1936 26.934 60.6096 26.5233 61.1536 26.214C61.7083 25.9047 62.3056 25.75 62.9456 25.75ZM70.9432 27.158C71.2312 26.7527 71.6259 26.4167 72.1272 26.15C72.6392 25.8727 73.2206 25.734 73.8712 25.734C74.6286 25.734 75.3112 25.9207 75.9192 26.294C76.5379 26.6673 77.0232 27.2007 77.3752 27.894C77.7379 28.5767 77.9192 29.3713 77.9192 30.278C77.9192 31.1847 77.7379 31.99 77.3752 32.694C77.0232 33.3873 76.5379 33.926 75.9192 34.31C75.3112 34.694 74.6286 34.886 73.8712 34.886C73.2206 34.886 72.6446 34.7527 72.1432 34.486C71.6526 34.2193 71.2526 33.8833 70.9432 33.478V38.966H68.7032V25.878H70.9432V27.158ZM75.6312 30.278C75.6312 29.7447 75.5192 29.286 75.2952 28.902C75.0819 28.5073 74.7939 28.2087 74.4312 28.006C74.0792 27.8033 73.6952 27.702 73.2792 27.702C72.8739 27.702 72.4899 27.8087 72.1272 28.022C71.7752 28.2247 71.4872 28.5233 71.2632 28.918C71.0499 29.3127 70.9432 29.7767 70.9432 30.31C70.9432 30.8433 71.0499 31.3073 71.2632 31.702C71.4872 32.0967 71.7752 32.4007 72.1272 32.614C72.4899 32.8167 72.8739 32.918 73.2792 32.918C73.6952 32.918 74.0792 32.8113 74.4312 32.598C74.7939 32.3847 75.0819 32.0807 75.2952 31.686C75.5192 31.2913 75.6312 30.822 75.6312 30.278ZM81.787 27.254C82.075 26.7847 82.4483 26.4167 82.907 26.15C83.3763 25.8833 83.9097 25.75 84.507 25.75V28.102H83.915C83.211 28.102 82.6777 28.2673 82.315 28.598C81.963 28.9287 81.787 29.5047 81.787 30.326V34.742H79.547V25.878H81.787V27.254ZM85.4397 30.278C85.4397 29.382 85.6157 28.5873 85.9677 27.894C86.3304 27.2007 86.8157 26.6673 87.4237 26.294C88.0424 25.9207 88.7304 25.734 89.4877 25.734C90.1491 25.734 90.7251 25.8673 91.2157 26.134C91.7171 26.4007 92.1171 26.7367 92.4157 27.142V25.878H94.6717V34.742H92.4157V33.446C92.1277 33.862 91.7277 34.2087 91.2157 34.486C90.7144 34.7527 90.1331 34.886 89.4717 34.886C88.7251 34.886 88.0424 34.694 87.4237 34.31C86.8157 33.926 86.3304 33.3873 85.9677 32.694C85.6157 31.99 85.4397 31.1847 85.4397 30.278ZM92.4157 30.31C92.4157 29.766 92.3091 29.302 92.0957 28.918C91.8824 28.5233 91.5944 28.2247 91.2317 28.022C90.8691 27.8087 90.4797 27.702 90.0637 27.702C89.6477 27.702 89.2637 27.8033 88.9117 28.006C88.5597 28.2087 88.2717 28.5073 88.0477 28.902C87.8344 29.286 87.7277 29.7447 87.7277 30.278C87.7277 30.8113 87.8344 31.2807 88.0477 31.686C88.2717 32.0807 88.5597 32.3847 88.9117 32.598C89.2744 32.8113 89.6584 32.918 90.0637 32.918C90.4797 32.918 90.8691 32.8167 91.2317 32.614C91.5944 32.4007 91.8824 32.102 92.0957 31.718C92.3091 31.3233 92.4157 30.854 92.4157 30.31ZM99.0995 27.254C99.3875 26.7847 99.7608 26.4167 100.219 26.15C100.689 25.8833 101.222 25.75 101.819 25.75V28.102H101.227C100.523 28.102 99.9902 28.2673 99.6275 28.598C99.2755 28.9287 99.0995 29.5047 99.0995 30.326V34.742H96.8595V25.878H99.0995V27.254ZM106.565 30.278C106.565 29.382 106.741 28.5873 107.093 27.894C107.455 27.2007 107.941 26.6673 108.549 26.294C109.167 25.9207 109.855 25.734 110.613 25.734C111.274 25.734 111.85 25.8673 112.341 26.134C112.842 26.4007 113.242 26.7367 113.541 27.142V25.878H115.797V34.742H113.541V33.446C113.253 33.862 112.853 34.2087 112.341 34.486C111.839 34.7527 111.258 34.886 110.597 34.886C109.85 34.886 109.167 34.694 108.549 34.31C107.941 33.926 107.455 33.3873 107.093 32.694C106.741 31.99 106.565 31.1847 106.565 30.278ZM113.541 30.31C113.541 29.766 113.434 29.302 113.221 28.918C113.007 28.5233 112.719 28.2247 112.357 28.022C111.994 27.8087 111.605 27.702 111.189 27.702C110.773 27.702 110.389 27.8033 110.037 28.006C109.685 28.2087 109.397 28.5073 109.173 28.902C108.959 29.286 108.853 29.7447 108.853 30.278C108.853 30.8113 108.959 31.2807 109.173 31.686C109.397 32.0807 109.685 32.3847 110.037 32.598C110.399 32.8113 110.783 32.918 111.189 32.918C111.605 32.918 111.994 32.8167 112.357 32.614C112.719 32.4007 113.007 32.102 113.221 31.718C113.434 31.3233 113.541 30.854 113.541 30.31ZM121.456 25.734C122.118 25.734 122.699 25.8673 123.2 26.134C123.702 26.39 124.096 26.726 124.384 27.142V25.878H126.64V34.806C126.64 35.6273 126.475 36.358 126.144 36.998C125.814 37.6487 125.318 38.1607 124.656 38.534C123.995 38.918 123.195 39.11 122.256 39.11C120.998 39.11 119.963 38.8167 119.152 38.23C118.352 37.6433 117.899 36.8433 117.792 35.83H120.016C120.134 36.2353 120.384 36.5553 120.768 36.79C121.163 37.0353 121.638 37.158 122.192 37.158C122.843 37.158 123.371 36.9607 123.776 36.566C124.182 36.182 124.384 35.5953 124.384 34.806V33.43C124.096 33.846 123.696 34.1927 123.184 34.47C122.683 34.7473 122.107 34.886 121.456 34.886C120.71 34.886 120.027 34.694 119.408 34.31C118.79 33.926 118.299 33.3873 117.936 32.694C117.584 31.99 117.408 31.1847 117.408 30.278C117.408 29.382 117.584 28.5873 117.936 27.894C118.299 27.2007 118.784 26.6673 119.392 26.294C120.011 25.9207 120.699 25.734 121.456 25.734ZM124.384 30.31C124.384 29.766 124.278 29.302 124.064 28.918C123.851 28.5233 123.563 28.2247 123.2 28.022C122.838 27.8087 122.448 27.702 122.032 27.702C121.616 27.702 121.232 27.8033 120.88 28.006C120.528 28.2087 120.24 28.5073 120.016 28.902C119.803 29.286 119.696 29.7447 119.696 30.278C119.696 30.8113 119.803 31.2807 120.016 31.686C120.24 32.0807 120.528 32.3847 120.88 32.598C121.243 32.8113 121.627 32.918 122.032 32.918C122.448 32.918 122.838 32.8167 123.2 32.614C123.563 32.4007 123.851 32.102 124.064 31.718C124.278 31.3233 124.384 30.854 124.384 30.31ZM132.764 34.886C131.911 34.886 131.143 34.6993 130.46 34.326C129.778 33.942 129.239 33.4033 128.844 32.71C128.46 32.0167 128.268 31.2167 128.268 30.31C128.268 29.4033 128.466 28.6033 128.86 27.91C129.266 27.2167 129.815 26.6833 130.508 26.31C131.202 25.926 131.975 25.734 132.828 25.734C133.682 25.734 134.455 25.926 135.148 26.31C135.842 26.6833 136.386 27.2167 136.78 27.91C137.186 28.6033 137.388 29.4033 137.388 30.31C137.388 31.2167 137.18 32.0167 136.764 32.71C136.359 33.4033 135.804 33.942 135.1 34.326C134.407 34.6993 133.628 34.886 132.764 34.886ZM132.764 32.934C133.17 32.934 133.548 32.838 133.9 32.646C134.263 32.4433 134.551 32.1447 134.764 31.75C134.978 31.3553 135.084 30.8753 135.084 30.31C135.084 29.4673 134.86 28.822 134.412 28.374C133.975 27.9153 133.436 27.686 132.796 27.686C132.156 27.686 131.618 27.9153 131.18 28.374C130.754 28.822 130.54 29.4673 130.54 30.31C130.54 31.1527 130.748 31.8033 131.164 32.262C131.591 32.71 132.124 32.934 132.764 32.934ZM141.271 27.254C141.559 26.7847 141.933 26.4167 142.391 26.15C142.861 25.8833 143.394 25.75 143.991 25.75V28.102H143.399C142.695 28.102 142.162 28.2673 141.799 28.598C141.447 28.9287 141.271 29.5047 141.271 30.326V34.742H139.031V25.878H141.271V27.254ZM144.924 30.278C144.924 29.382 145.1 28.5873 145.452 27.894C145.815 27.2007 146.3 26.6673 146.908 26.294C147.527 25.9207 148.215 25.734 148.972 25.734C149.633 25.734 150.209 25.8673 150.7 26.134C151.201 26.4007 151.601 26.7367 151.9 27.142V25.878H154.156V34.742H151.9V33.446C151.612 33.862 151.212 34.2087 150.7 34.486C150.199 34.7527 149.617 34.886 148.956 34.886C148.209 34.886 147.527 34.694 146.908 34.31C146.3 33.926 145.815 33.3873 145.452 32.694C145.1 31.99 144.924 31.1847 144.924 30.278ZM151.9 30.31C151.9 29.766 151.793 29.302 151.58 28.918C151.367 28.5233 151.079 28.2247 150.716 28.022C150.353 27.8087 149.964 27.702 149.548 27.702C149.132 27.702 148.748 27.8033 148.396 28.006C148.044 28.2087 147.756 28.5073 147.532 28.902C147.319 29.286 147.212 29.7447 147.212 30.278C147.212 30.8113 147.319 31.2807 147.532 31.686C147.756 32.0807 148.044 32.3847 148.396 32.598C148.759 32.8113 149.143 32.918 149.548 32.918C149.964 32.918 150.353 32.8167 150.716 32.614C151.079 32.4007 151.367 32.102 151.58 31.718C151.793 31.3233 151.9 30.854 151.9 30.31Z" fill="#FAFAFA"/>
<defs>
<linearGradient id="paint0_linear_93_81" x1="89.0806" y1="-8.11321" x2="89.5728" y2="58.1757" gradientUnits="userSpaceOnUse">
<stop stop-color="#FF5F5F"/>
<stop offset="1" stop-color="#F062C0"/>
<stop offset="1" stop-color="#F23131"/>
</linearGradient>
</defs>
</svg>
