<svg width="124" height="34" viewBox="0 0 124 34" fill="none" xmlns="http://www.w3.org/2000/svg">
<path d="M0 2C0 0.89543 0.895431 0 2 0H54C55.1046 0 56 0.895431 56 2V32C56 33.1046 55.1046 34 54 34H2C0.89543 34 0 33.1046 0 32V2Z" fill="#030517"/>
<path d="M22.648 7C17.3281 7 13 11.3277 13 16.6471C13 21.9666 17.3281 26.2942 22.648 26.2942C27.9679 26.2942 32.2961 21.9666 32.2961 16.6471C32.2961 11.3277 27.9679 7 22.648 7Z" fill="#FFBC4F"/>
<path d="M33.3521 7C28.0322 7 23.7041 11.3277 23.7041 16.6471C23.7041 21.9666 28.0322 26.2942 33.3521 26.2942C38.672 26.2942 43.0002 21.9666 43.0002 16.6471C43.0002 11.3277 38.672 7 33.3521 7Z" fill="#F56161"/>
<path d="M27.4616 19.813C27.4616 19.3276 27.0682 18.9341 26.5827 18.9341H23.9785C24.1275 19.5448 24.3347 20.1328 24.594 20.6919H26.5827C27.0682 20.6919 27.4616 20.2985 27.4616 19.813Z" fill="#FFBC4F"/>
<path d="M27.4621 14.0928C27.4621 13.6076 27.0686 13.2139 26.5832 13.2139H24.3362C24.1211 13.7767 23.957 14.3645 23.8501 14.9717H26.5832C27.0686 14.9717 27.4621 14.5783 27.4621 14.0928Z" fill="#FFBC4F"/>
<path d="M29.8798 16.9529C29.8798 16.4674 29.4861 16.074 29.0009 16.074H23.7215C23.7103 16.2637 23.7041 16.4546 23.7041 16.6471C23.7041 17.0481 23.729 17.4434 23.7769 17.8318H29.0009C29.4861 17.8318 29.8798 17.4384 29.8798 16.9529Z" fill="#FFBC4F"/>
<path d="M68 2C68 0.89543 68.8954 0 70 0H122C123.105 0 124 0.895431 124 2V32C124 33.1046 123.105 34 122 34H70C68.8954 34 68 33.1046 68 32V2Z" fill="#030517"/>
<path d="M75 11.197V11.3944C79.2046 12.4056 82.1237 14.9622 83.2794 17.8992L82.0644 12.24C81.8615 11.4666 81.2469 11.2239 80.5196 11.1971L75 11.197Z" fill="#F7981D"/>
<path d="M89.6851 23.4183L91.7547 11.197H95.1055L93.0359 23.4183H89.6851Z" fill="#FAFAFA"/>
<path d="M104.965 11.5129C104.301 11.2653 103.261 11 101.961 11C98.6498 11 96.3171 12.658 96.297 15.0333C96.2787 16.789 97.9622 17.7683 99.234 18.3534C100.538 18.9512 100.977 19.3348 100.971 19.8691C100.962 20.6883 99.9285 21.0628 98.965 21.0628C97.624 21.0623 96.9112 20.8774 95.8106 20.4213L95.3788 20.2266L94.9082 22.9625C95.6911 23.3038 97.1388 23.5997 98.6417 23.6147C102.164 23.6139 104.451 21.9765 104.477 19.4392C104.49 18.0491 103.597 16.9911 101.663 16.1187C100.492 15.554 99.7743 15.1769 99.782 14.6038C99.782 14.096 100.39 13.5528 101.701 13.5528C102.797 13.5357 103.591 13.7732 104.21 14.0209L104.51 14.1619L104.965 11.5129Z" fill="#FAFAFA"/>
<path d="M110.678 11.197C109.875 11.197 109.295 11.4422 108.942 12.2378L103.976 23.4187H107.524L108.214 21.5459H112.452L112.846 23.4187H116L113.241 11.1973H110.678L110.678 11.197ZM109.155 19.1005C109.432 18.3967 110.489 15.6847 110.489 15.6847C110.47 15.7168 110.765 14.9775 110.934 14.5188L111.161 15.5719C111.161 15.5719 111.802 18.4893 111.936 19.1009H109.155V19.1005Z" fill="#FAFAFA"/>
<path d="M83.5746 19.5745L83.2795 17.8991C82.6679 15.9461 80.7699 13.8329 78.6431 12.7742L81.6036 23.4183H85.1522L90.474 11.197H86.9262L83.5746 19.5745Z" fill="#FAFAFA"/>
</svg>
