<svg width="164" height="24" viewBox="0 0 164 24" fill="none" xmlns="http://www.w3.org/2000/svg">
<path fill-rule="evenodd" clip-rule="evenodd" d="M12 4.915C13.09 3.635 14.76 2.825 16.5 2.825C19.58 2.825 22 5.245 22 8.325C22 12.1019 18.6056 15.1799 13.4627 19.8435L13.45 19.855L12 21.175L10.55 19.865L10.5105 19.8291C5.38263 15.1692 2 12.0953 2 8.325C2 5.245 4.42 2.825 7.5 2.825C9.24 2.825 10.91 3.635 12 4.915ZM12 18.475L12.1 18.375C16.86 14.065 20 11.215 20 8.325C20 6.325 18.5 4.825 16.5 4.825C14.96 4.825 13.46 5.815 12.94 7.185H11.07C10.54 5.815 9.04 4.825 7.5 4.825C5.5 4.825 4 6.325 4 8.325C4 11.215 7.14 14.065 11.9 18.375L12 18.475Z" fill="#F231A5"/>
<path d="M39.1178 16.528H42.8778V18H37.2938V6.88H39.1178V16.528ZM45.3311 8.016C45.0005 8.016 44.7231 7.904 44.4991 7.68C44.2751 7.456 44.1631 7.17867 44.1631 6.848C44.1631 6.51733 44.2751 6.24 44.4991 6.016C44.7231 5.792 45.0005 5.68 45.3311 5.68C45.6511 5.68 45.9231 5.792 46.1471 6.016C46.3711 6.24 46.4831 6.51733 46.4831 6.848C46.4831 7.17867 46.3711 7.456 46.1471 7.68C45.9231 7.904 45.6511 8.016 45.3311 8.016ZM46.2271 9.184V18H44.4031V9.184H46.2271ZM51.8219 18.144C51.1285 18.144 50.5045 18.0213 49.9499 17.776C49.4059 17.52 48.9739 17.1787 48.6539 16.752C48.3339 16.3147 48.1632 15.8293 48.1419 15.296H50.0299C50.0619 15.6693 50.2379 15.984 50.5579 16.24C50.8885 16.4853 51.2992 16.608 51.7899 16.608C52.3019 16.608 52.6965 16.512 52.9739 16.32C53.2619 16.1173 53.4059 15.8613 53.4059 15.552C53.4059 15.2213 53.2459 14.976 52.9259 14.816C52.6165 14.656 52.1205 14.48 51.4379 14.288C50.7765 14.1067 50.2379 13.9307 49.8219 13.76C49.4059 13.5893 49.0432 13.328 48.7339 12.976C48.4352 12.624 48.2859 12.16 48.2859 11.584C48.2859 11.1147 48.4245 10.688 48.7019 10.304C48.9792 9.90933 49.3739 9.6 49.8859 9.376C50.4085 9.152 51.0059 9.04 51.6779 9.04C52.6805 9.04 53.4859 9.296 54.0939 9.808C54.7125 10.3093 55.0432 10.9973 55.0859 11.872H53.2619C53.2299 11.4773 53.0699 11.1627 52.7819 10.928C52.4939 10.6933 52.1045 10.576 51.6139 10.576C51.1339 10.576 50.7659 10.6667 50.5099 10.848C50.2539 11.0293 50.1259 11.2693 50.1259 11.568C50.1259 11.8027 50.2112 12 50.3819 12.16C50.5525 12.32 50.7605 12.448 51.0059 12.544C51.2512 12.6293 51.6139 12.7413 52.0939 12.88C52.7339 13.0507 53.2565 13.2267 53.6619 13.408C54.0779 13.5787 54.4352 13.8347 54.7339 14.176C55.0325 14.5173 55.1872 14.9707 55.1979 15.536C55.1979 16.0373 55.0592 16.4853 54.7819 16.88C54.5045 17.2747 54.1099 17.584 53.5979 17.808C53.0965 18.032 52.5045 18.144 51.8219 18.144ZM59.2968 10.672V15.552C59.2968 15.8827 59.3714 16.1227 59.5208 16.272C59.6808 16.4107 59.9474 16.48 60.3208 16.48H61.4408V18H60.0008C59.1794 18 58.5501 17.808 58.1128 17.424C57.6754 17.04 57.4568 16.416 57.4568 15.552V10.672H56.4168V9.184H57.4568V6.992H59.2968V9.184H61.4408V10.672H59.2968ZM62.5139 13.552C62.5139 12.6667 62.6952 11.8827 63.0579 11.2C63.4312 10.5173 63.9325 9.98933 64.5619 9.616C65.2019 9.232 65.9059 9.04 66.6739 9.04C67.3672 9.04 67.9699 9.17867 68.4819 9.456C69.0045 9.72267 69.4205 10.0587 69.7299 10.464V9.184H71.5699V18H69.7299V16.688C69.4205 17.104 68.9992 17.4507 68.4659 17.728C67.9325 18.0053 67.3245 18.144 66.6419 18.144C65.8845 18.144 65.1912 17.952 64.5619 17.568C63.9325 17.1733 63.4312 16.6293 63.0579 15.936C62.6952 15.232 62.5139 14.4373 62.5139 13.552ZM69.7299 13.584C69.7299 12.976 69.6019 12.448 69.3459 12C69.1005 11.552 68.7752 11.2107 68.3699 10.976C67.9645 10.7413 67.5272 10.624 67.0579 10.624C66.5885 10.624 66.1512 10.7413 65.7459 10.976C65.3405 11.2 65.0099 11.536 64.7539 11.984C64.5085 12.4213 64.3859 12.944 64.3859 13.552C64.3859 14.16 64.5085 14.6933 64.7539 15.152C65.0099 15.6107 65.3405 15.9627 65.7459 16.208C66.1619 16.4427 66.5992 16.56 67.0579 16.56C67.5272 16.56 67.9645 16.4427 68.3699 16.208C68.7752 15.9733 69.1005 15.632 69.3459 15.184C69.6019 14.7253 69.7299 14.192 69.7299 13.584ZM77.5139 13.552C77.5139 12.6667 77.6952 11.8827 78.0579 11.2C78.4312 10.5173 78.9325 9.98933 79.5619 9.616C80.2019 9.232 80.9112 9.04 81.6899 9.04C82.2659 9.04 82.8312 9.168 83.3859 9.424C83.9512 9.66933 84.3992 10 84.7299 10.416V6.16H86.5699V18H84.7299V16.672C84.4312 17.0987 84.0152 17.4507 83.4819 17.728C82.9592 18.0053 82.3565 18.144 81.6739 18.144C80.9059 18.144 80.2019 17.952 79.5619 17.568C78.9325 17.1733 78.4312 16.6293 78.0579 15.936C77.6952 15.232 77.5139 14.4373 77.5139 13.552ZM84.7299 13.584C84.7299 12.976 84.6019 12.448 84.3459 12C84.1005 11.552 83.7752 11.2107 83.3699 10.976C82.9645 10.7413 82.5272 10.624 82.0579 10.624C81.5885 10.624 81.1512 10.7413 80.7459 10.976C80.3405 11.2 80.0099 11.536 79.7539 11.984C79.5085 12.4213 79.3859 12.944 79.3859 13.552C79.3859 14.16 79.5085 14.6933 79.7539 15.152C80.0099 15.6107 80.3405 15.9627 80.7459 16.208C81.1619 16.4427 81.5992 16.56 82.0579 16.56C82.5272 16.56 82.9645 16.4427 83.3699 16.208C83.7752 15.9733 84.1005 15.632 84.3459 15.184C84.6019 14.7253 84.7299 14.192 84.7299 13.584ZM97.0456 13.376C97.0456 13.7067 97.0243 14.0053 96.9816 14.272H90.2456C90.299 14.976 90.5603 15.5413 91.0296 15.968C91.499 16.3947 92.075 16.608 92.7576 16.608C93.739 16.608 94.4323 16.1973 94.8376 15.376H96.8056C96.539 16.1867 96.0536 16.8533 95.3496 17.376C94.6563 17.888 93.7923 18.144 92.7576 18.144C91.915 18.144 91.1576 17.9573 90.4856 17.584C89.8243 17.2 89.3016 16.6667 88.9176 15.984C88.5443 15.2907 88.3576 14.4907 88.3576 13.584C88.3576 12.6773 88.539 11.8827 88.9016 11.2C89.275 10.5067 89.7923 9.97333 90.4536 9.6C91.1256 9.22667 91.8936 9.04 92.7576 9.04C93.5896 9.04 94.331 9.22133 94.9816 9.584C95.6323 9.94667 96.139 10.4587 96.5016 11.12C96.8643 11.7707 97.0456 12.5227 97.0456 13.376ZM95.1416 12.8C95.131 12.128 94.891 11.5893 94.4216 11.184C93.9523 10.7787 93.371 10.576 92.6776 10.576C92.0483 10.576 91.5096 10.7787 91.0616 11.184C90.6136 11.5787 90.347 12.1173 90.2616 12.8H95.1416ZM102.389 13.552C102.389 12.6667 102.57 11.8827 102.933 11.2C103.306 10.5173 103.808 9.98933 104.437 9.616C105.077 9.232 105.786 9.04 106.565 9.04C107.141 9.04 107.706 9.168 108.261 9.424C108.826 9.66933 109.274 10 109.605 10.416V6.16H111.445V18H109.605V16.672C109.306 17.0987 108.89 17.4507 108.357 17.728C107.834 18.0053 107.232 18.144 106.549 18.144C105.781 18.144 105.077 17.952 104.437 17.568C103.808 17.1733 103.306 16.6293 102.933 15.936C102.57 15.232 102.389 14.4373 102.389 13.552ZM109.605 13.584C109.605 12.976 109.477 12.448 109.221 12C108.976 11.552 108.65 11.2107 108.245 10.976C107.84 10.7413 107.402 10.624 106.933 10.624C106.464 10.624 106.026 10.7413 105.621 10.976C105.216 11.2 104.885 11.536 104.629 11.984C104.384 12.4213 104.261 12.944 104.261 13.552C104.261 14.16 104.384 14.6933 104.629 15.152C104.885 15.6107 105.216 15.9627 105.621 16.208C106.037 16.4427 106.474 16.56 106.933 16.56C107.402 16.56 107.84 16.4427 108.245 16.208C108.65 15.9733 108.976 15.632 109.221 15.184C109.477 14.7253 109.605 14.192 109.605 13.584ZM121.921 13.376C121.921 13.7067 121.899 14.0053 121.857 14.272H115.121C115.174 14.976 115.435 15.5413 115.905 15.968C116.374 16.3947 116.95 16.608 117.633 16.608C118.614 16.608 119.307 16.1973 119.713 15.376H121.681C121.414 16.1867 120.929 16.8533 120.225 17.376C119.531 17.888 118.667 18.144 117.633 18.144C116.79 18.144 116.033 17.9573 115.361 17.584C114.699 17.2 114.177 16.6667 113.793 15.984C113.419 15.2907 113.233 14.4907 113.233 13.584C113.233 12.6773 113.414 11.8827 113.777 11.2C114.15 10.5067 114.667 9.97333 115.329 9.6C116.001 9.22667 116.769 9.04 117.633 9.04C118.465 9.04 119.206 9.22133 119.857 9.584C120.507 9.94667 121.014 10.4587 121.377 11.12C121.739 11.7707 121.921 12.5227 121.921 13.376ZM120.017 12.8C120.006 12.128 119.766 11.5893 119.297 11.184C118.827 10.7787 118.246 10.576 117.553 10.576C116.923 10.576 116.385 10.7787 115.937 11.184C115.489 11.5787 115.222 12.1173 115.137 12.8H120.017ZM126.916 18.144C126.222 18.144 125.598 18.0213 125.044 17.776C124.5 17.52 124.068 17.1787 123.748 16.752C123.428 16.3147 123.257 15.8293 123.236 15.296H125.124C125.156 15.6693 125.332 15.984 125.652 16.24C125.982 16.4853 126.393 16.608 126.884 16.608C127.396 16.608 127.79 16.512 128.068 16.32C128.356 16.1173 128.5 15.8613 128.5 15.552C128.5 15.2213 128.34 14.976 128.02 14.816C127.71 14.656 127.214 14.48 126.532 14.288C125.87 14.1067 125.332 13.9307 124.916 13.76C124.5 13.5893 124.137 13.328 123.828 12.976C123.529 12.624 123.38 12.16 123.38 11.584C123.38 11.1147 123.518 10.688 123.796 10.304C124.073 9.90933 124.468 9.6 124.98 9.376C125.502 9.152 126.1 9.04 126.772 9.04C127.774 9.04 128.58 9.296 129.188 9.808C129.806 10.3093 130.137 10.9973 130.18 11.872H128.356C128.324 11.4773 128.164 11.1627 127.876 10.928C127.588 10.6933 127.198 10.576 126.708 10.576C126.228 10.576 125.86 10.6667 125.604 10.848C125.348 11.0293 125.22 11.2693 125.22 11.568C125.22 11.8027 125.305 12 125.476 12.16C125.646 12.32 125.854 12.448 126.1 12.544C126.345 12.6293 126.708 12.7413 127.188 12.88C127.828 13.0507 128.35 13.2267 128.756 13.408C129.172 13.5787 129.529 13.8347 129.828 14.176C130.126 14.5173 130.281 14.9707 130.292 15.536C130.292 16.0373 130.153 16.4853 129.876 16.88C129.598 17.2747 129.204 17.584 128.692 17.808C128.19 18.032 127.598 18.144 126.916 18.144ZM140.343 13.376C140.343 13.7067 140.321 14.0053 140.279 14.272H133.543C133.596 14.976 133.857 15.5413 134.327 15.968C134.796 16.3947 135.372 16.608 136.055 16.608C137.036 16.608 137.729 16.1973 138.135 15.376H140.102C139.836 16.1867 139.351 16.8533 138.647 17.376C137.953 17.888 137.089 18.144 136.055 18.144C135.212 18.144 134.455 17.9573 133.783 17.584C133.121 17.2 132.599 16.6667 132.215 15.984C131.841 15.2907 131.655 14.4907 131.655 13.584C131.655 12.6773 131.836 11.8827 132.199 11.2C132.572 10.5067 133.089 9.97333 133.751 9.6C134.423 9.22667 135.191 9.04 136.055 9.04C136.887 9.04 137.628 9.22133 138.279 9.584C138.929 9.94667 139.436 10.4587 139.799 11.12C140.161 11.7707 140.343 12.5227 140.343 13.376ZM138.439 12.8C138.428 12.128 138.188 11.5893 137.719 11.184C137.249 10.7787 136.668 10.576 135.975 10.576C135.345 10.576 134.807 10.7787 134.359 11.184C133.911 11.5787 133.644 12.1173 133.559 12.8H138.439ZM143.066 8.016C142.735 8.016 142.458 7.904 142.234 7.68C142.01 7.456 141.898 7.17867 141.898 6.848C141.898 6.51733 142.01 6.24 142.234 6.016C142.458 5.792 142.735 5.68 143.066 5.68C143.386 5.68 143.658 5.792 143.882 6.016C144.106 6.24 144.218 6.51733 144.218 6.848C144.218 7.17867 144.106 7.456 143.882 7.68C143.658 7.904 143.386 8.016 143.066 8.016ZM143.962 19.728C143.962 20.592 143.743 21.216 143.306 21.6C142.879 21.9947 142.255 22.192 141.434 22.192H140.489V20.656H141.114C141.487 20.656 141.748 20.5813 141.898 20.432C142.058 20.2933 142.138 20.0587 142.138 19.728V9.184H143.962V19.728ZM150.18 18.144C149.348 18.144 148.596 17.9573 147.924 17.584C147.252 17.2 146.724 16.6667 146.34 15.984C145.956 15.2907 145.764 14.4907 145.764 13.584C145.764 12.688 145.962 11.8933 146.356 11.2C146.751 10.5067 147.29 9.97333 147.972 9.6C148.655 9.22667 149.418 9.04 150.26 9.04C151.103 9.04 151.866 9.22667 152.548 9.6C153.231 9.97333 153.77 10.5067 154.164 11.2C154.559 11.8933 154.756 12.688 154.756 13.584C154.756 14.48 154.554 15.2747 154.148 15.968C153.743 16.6613 153.188 17.2 152.484 17.584C151.791 17.9573 151.023 18.144 150.18 18.144ZM150.18 16.56C150.65 16.56 151.087 16.448 151.492 16.224C151.908 16 152.244 15.664 152.5 15.216C152.756 14.768 152.884 14.224 152.884 13.584C152.884 12.944 152.762 12.4053 152.516 11.968C152.271 11.52 151.946 11.184 151.54 10.96C151.135 10.736 150.698 10.624 150.228 10.624C149.759 10.624 149.322 10.736 148.916 10.96C148.522 11.184 148.207 11.52 147.972 11.968C147.738 12.4053 147.62 12.944 147.62 13.584C147.62 14.5333 147.86 15.2693 148.34 15.792C148.831 16.304 149.444 16.56 150.18 16.56ZM159.759 18.144C159.066 18.144 158.442 18.0213 157.887 17.776C157.343 17.52 156.911 17.1787 156.591 16.752C156.271 16.3147 156.101 15.8293 156.079 15.296H157.967C157.999 15.6693 158.175 15.984 158.495 16.24C158.826 16.4853 159.237 16.608 159.727 16.608C160.239 16.608 160.634 16.512 160.911 16.32C161.199 16.1173 161.343 15.8613 161.343 15.552C161.343 15.2213 161.183 14.976 160.863 14.816C160.554 14.656 160.058 14.48 159.375 14.288C158.714 14.1067 158.175 13.9307 157.759 13.76C157.343 13.5893 156.981 13.328 156.671 12.976C156.373 12.624 156.223 12.16 156.223 11.584C156.223 11.1147 156.362 10.688 156.639 10.304C156.917 9.90933 157.311 9.6 157.823 9.376C158.346 9.152 158.943 9.04 159.615 9.04C160.618 9.04 161.423 9.296 162.031 9.808C162.65 10.3093 162.981 10.9973 163.023 11.872H161.199C161.167 11.4773 161.007 11.1627 160.719 10.928C160.431 10.6933 160.042 10.576 159.551 10.576C159.071 10.576 158.703 10.6667 158.447 10.848C158.191 11.0293 158.063 11.2693 158.063 11.568C158.063 11.8027 158.149 12 158.319 12.16C158.49 12.32 158.698 12.448 158.943 12.544C159.189 12.6293 159.551 12.7413 160.031 12.88C160.671 13.0507 161.194 13.2267 161.599 13.408C162.015 13.5787 162.373 13.8347 162.671 14.176C162.97 14.5173 163.125 14.9707 163.135 15.536C163.135 16.0373 162.997 16.4853 162.719 16.88C162.442 17.2747 162.047 17.584 161.535 17.808C161.034 18.032 160.442 18.144 159.759 18.144Z" fill="#F231A5"/>
</svg>
