<svg width="194" height="60" viewBox="0 0 194 60" fill="none" xmlns="http://www.w3.org/2000/svg">
<g filter="url(#filter0_d_10772_1616)">
<rect x="5" y="1" width="184" height="50" rx="4" fill="url(#paint0_linear_10772_1616)"/>
<path d="M80.0993 29.728H75.4433L74.6433 32H72.7393L76.7233 20.864H78.8353L82.8193 32H80.8993L80.0993 29.728ZM79.5873 28.24L77.7793 23.072L75.9553 28.24H79.5873ZM83.9436 27.552C83.9436 26.6667 84.1249 25.8827 84.4876 25.2C84.8609 24.5173 85.3622 23.9893 85.9916 23.616C86.6316 23.232 87.3409 23.04 88.1196 23.04C88.6956 23.04 89.2609 23.168 89.8156 23.424C90.3809 23.6693 90.8289 24 91.1596 24.416V20.16H92.9996V32H91.1596V30.672C90.8609 31.0987 90.4449 31.4507 89.9116 31.728C89.3889 32.0053 88.7862 32.144 88.1036 32.144C87.3356 32.144 86.6316 31.952 85.9916 31.568C85.3622 31.1733 84.8609 30.6293 84.4876 29.936C84.1249 29.232 83.9436 28.4373 83.9436 27.552ZM91.1596 27.584C91.1596 26.976 91.0316 26.448 90.7756 26C90.5302 25.552 90.2049 25.2107 89.7996 24.976C89.3942 24.7413 88.9569 24.624 88.4876 24.624C88.0182 24.624 87.5809 24.7413 87.1756 24.976C86.7702 25.2 86.4396 25.536 86.1836 25.984C85.9382 26.4213 85.8156 26.944 85.8156 27.552C85.8156 28.16 85.9382 28.6933 86.1836 29.152C86.4396 29.6107 86.7702 29.9627 87.1756 30.208C87.5916 30.4427 88.0289 30.56 88.4876 30.56C88.9569 30.56 89.3942 30.4427 89.7996 30.208C90.2049 29.9733 90.5302 29.632 90.7756 29.184C91.0316 28.7253 91.1596 28.192 91.1596 27.584ZM96.3233 22.016C95.9926 22.016 95.7153 21.904 95.4913 21.68C95.2673 21.456 95.1553 21.1787 95.1553 20.848C95.1553 20.5173 95.2673 20.24 95.4913 20.016C95.7153 19.792 95.9926 19.68 96.3233 19.68C96.6433 19.68 96.9153 19.792 97.1393 20.016C97.3633 20.24 97.4753 20.5173 97.4753 20.848C97.4753 21.1787 97.3633 21.456 97.1393 21.68C96.9153 21.904 96.6433 22.016 96.3233 22.016ZM97.2193 23.184V32H95.3953V23.184H97.2193ZM99.0061 27.584C99.0061 26.6773 99.1874 25.8827 99.5501 25.2C99.9234 24.5067 100.435 23.9733 101.086 23.6C101.737 23.2267 102.483 23.04 103.326 23.04C104.393 23.04 105.273 23.296 105.966 23.808C106.67 24.3093 107.145 25.0293 107.39 25.968H105.422C105.262 25.5307 105.006 25.1893 104.654 24.944C104.302 24.6987 103.859 24.576 103.326 24.576C102.579 24.576 101.982 24.8427 101.534 25.376C101.097 25.8987 100.878 26.6347 100.878 27.584C100.878 28.5333 101.097 29.2747 101.534 29.808C101.982 30.3413 102.579 30.608 103.326 30.608C104.382 30.608 105.081 30.144 105.422 29.216H107.39C107.134 30.112 106.654 30.8267 105.95 31.36C105.246 31.8827 104.371 32.144 103.326 32.144C102.483 32.144 101.737 31.9573 101.086 31.584C100.435 31.2 99.9234 30.6667 99.5501 29.984C99.1874 29.2907 99.0061 28.4907 99.0061 27.584ZM110.136 22.016C109.805 22.016 109.528 21.904 109.304 21.68C109.08 21.456 108.968 21.1787 108.968 20.848C108.968 20.5173 109.08 20.24 109.304 20.016C109.528 19.792 109.805 19.68 110.136 19.68C110.456 19.68 110.728 19.792 110.952 20.016C111.176 20.24 111.288 20.5173 111.288 20.848C111.288 21.1787 111.176 21.456 110.952 21.68C110.728 21.904 110.456 22.016 110.136 22.016ZM111.032 23.184V32H109.208V23.184H111.032ZM117.251 32.144C116.419 32.144 115.667 31.9573 114.995 31.584C114.323 31.2 113.795 30.6667 113.411 29.984C113.027 29.2907 112.835 28.4907 112.835 27.584C112.835 26.688 113.032 25.8933 113.427 25.2C113.821 24.5067 114.36 23.9733 115.043 23.6C115.725 23.2267 116.488 23.04 117.331 23.04C118.173 23.04 118.936 23.2267 119.619 23.6C120.301 23.9733 120.84 24.5067 121.235 25.2C121.629 25.8933 121.827 26.688 121.827 27.584C121.827 28.48 121.624 29.2747 121.219 29.968C120.813 30.6613 120.259 31.2 119.555 31.584C118.861 31.9573 118.093 32.144 117.251 32.144ZM117.251 30.56C117.72 30.56 118.157 30.448 118.563 30.224C118.979 30 119.315 29.664 119.571 29.216C119.827 28.768 119.955 28.224 119.955 27.584C119.955 26.944 119.832 26.4053 119.587 25.968C119.341 25.52 119.016 25.184 118.611 24.96C118.205 24.736 117.768 24.624 117.299 24.624C116.829 24.624 116.392 24.736 115.987 24.96C115.592 25.184 115.277 25.52 115.043 25.968C114.808 26.4053 114.691 26.944 114.691 27.584C114.691 28.5333 114.931 29.2693 115.411 29.792C115.901 30.304 116.515 30.56 117.251 30.56ZM128.078 23.04C128.771 23.04 129.39 23.184 129.934 23.472C130.488 23.76 130.92 24.1867 131.23 24.752C131.539 25.3173 131.694 26 131.694 26.8V32H129.886V27.072C129.886 26.2827 129.688 25.68 129.294 25.264C128.899 24.8373 128.36 24.624 127.678 24.624C126.995 24.624 126.451 24.8373 126.046 25.264C125.651 25.68 125.454 26.2827 125.454 27.072V32H123.63V23.184H125.454V24.192C125.752 23.8293 126.131 23.5467 126.59 23.344C127.059 23.1413 127.555 23.04 128.078 23.04ZM133.412 27.552C133.412 26.6667 133.594 25.8827 133.956 25.2C134.33 24.5173 134.831 23.9893 135.46 23.616C136.1 23.232 136.804 23.04 137.572 23.04C138.266 23.04 138.868 23.1787 139.38 23.456C139.903 23.7227 140.319 24.0587 140.628 24.464V23.184H142.468V32H140.628V30.688C140.319 31.104 139.898 31.4507 139.364 31.728C138.831 32.0053 138.223 32.144 137.54 32.144C136.783 32.144 136.09 31.952 135.46 31.568C134.831 31.1733 134.33 30.6293 133.956 29.936C133.594 29.232 133.412 28.4373 133.412 27.552ZM140.628 27.584C140.628 26.976 140.5 26.448 140.244 26C139.999 25.552 139.674 25.2107 139.268 24.976C138.863 24.7413 138.426 24.624 137.956 24.624C137.487 24.624 137.05 24.7413 136.644 24.976C136.239 25.2 135.908 25.536 135.652 25.984C135.407 26.4213 135.284 26.944 135.284 27.552C135.284 28.16 135.407 28.6933 135.652 29.152C135.908 29.6107 136.239 29.9627 136.644 30.208C137.06 30.4427 137.498 30.56 137.956 30.56C138.426 30.56 138.863 30.4427 139.268 30.208C139.674 29.9733 139.999 29.632 140.244 29.184C140.5 28.7253 140.628 28.192 140.628 27.584ZM146.688 24.464C146.955 24.016 147.307 23.6693 147.744 23.424C148.192 23.168 148.72 23.04 149.328 23.04V24.928H148.864C148.149 24.928 147.605 25.1093 147.232 25.472C146.869 25.8347 146.688 26.464 146.688 27.36V32H144.864V23.184H146.688V24.464Z" fill="#FAFAFA"/>
<path fill-rule="evenodd" clip-rule="evenodd" d="M54.1801 24.3125H52.4301V21.6875H49.8051V19.9375H52.4301V17.3125H54.1801V19.9375H56.8051V21.6875H54.1801V24.3125ZM47.1888 33.9375C47.1888 32.975 47.9676 32.1875 48.9301 32.1875C49.8926 32.1875 50.6801 32.975 50.6801 33.9375C50.6801 34.9 49.8926 35.6875 48.9301 35.6875C47.9676 35.6875 47.1888 34.9 47.1888 33.9375ZM57.6801 32.1875C56.7176 32.1875 55.9388 32.975 55.9388 33.9375C55.9388 34.9 56.7176 35.6875 57.6801 35.6875C58.6426 35.6875 59.4301 34.9 59.4301 33.9375C59.4301 32.975 58.6426 32.1875 57.6801 32.1875ZM56.4113 27.8125H49.8926L48.9301 29.5625H59.4301V31.3125H48.9301C47.6001 31.3125 46.7601 29.8862 47.3988 28.7137L48.5801 26.5788L45.4301 19.9375H43.6801V18.1875H46.5413L50.2688 26.0625H56.4113L59.7976 19.9375L61.3201 20.7775L57.9426 26.9113C57.6451 27.4538 57.0676 27.8125 56.4113 27.8125Z" fill="#FAFAFA"/>
</g>
<defs>
<filter id="filter0_d_10772_1616" x="0" y="0" width="194" height="60" filterUnits="userSpaceOnUse" color-interpolation-filters="sRGB">
<feFlood flood-opacity="0" result="BackgroundImageFix"/>
<feColorMatrix in="SourceAlpha" type="matrix" values="0 0 0 0 0 0 0 0 0 0 0 0 0 0 0 0 0 0 127 0" result="hardAlpha"/>
<feOffset dy="4"/>
<feGaussianBlur stdDeviation="2.5"/>
<feColorMatrix type="matrix" values="0 0 0 0 0.941667 0 0 0 0 0.384514 0 0 0 0 0.752235 0 0 0 0.2 0"/>
<feBlend mode="normal" in2="BackgroundImageFix" result="effect1_dropShadow_10772_1616"/>
<feBlend mode="normal" in="SourceGraphic" in2="effect1_dropShadow_10772_1616" result="shape"/>
</filter>
<linearGradient id="paint0_linear_10772_1616" x1="94.4105" y1="-7.03165" x2="94.8126" y2="53.0928" gradientUnits="userSpaceOnUse">
<stop stop-color="#FF5F5F"/>
<stop offset="1" stop-color="#F062C0"/>
<stop offset="1" stop-color="#F23131"/>
</linearGradient>
</defs>
</svg>
