<svg width="100" height="100" viewBox="0 0 100 100" fill="none" xmlns="http://www.w3.org/2000/svg">
<path opacity="0.2" d="M50 100C77.6143 100 100 77.6142 100 50C100 22.3857 77.6143 0 50 0C22.3858 0 0 22.3857 0 50C0 77.6142 22.3858 100 50 100Z" fill="#F231A5"/>
<path d="M50.0005 90.2597C72.2353 90.2597 90.2602 72.2348 90.2602 49.9999C90.2602 27.7651 72.2353 9.74022 50.0005 9.74022C27.7656 9.74022 9.74072 27.7651 9.74072 49.9999C9.74072 72.2348 27.7656 90.2597 50.0005 90.2597Z" fill="#F231A5"/>
<path d="M41.0834 70.0375L26.8945 51.7954L35.1458 45.3778L41.8633 54.0151L64.5573 30.0594L72.1465 37.2483L41.0834 70.0375Z" fill="white"/>
</svg>
