<svg width="27" height="28" viewBox="0 0 27 28" fill="none" xmlns="http://www.w3.org/2000/svg">
<path fill-rule="evenodd" clip-rule="evenodd" d="M16.7281 16.3726C16.4172 16.9395 15.8138 17.3143 15.1281 17.3143H8.31662L7.31091 19.1429H18.2823V20.9715H7.31091C5.9212 20.9715 5.04348 19.4812 5.71091 18.256L6.9452 16.0252L3.65377 9.08574H1.8252V7.25717H4.81491L5.67434 9.08574H19.2058C19.9006 9.08574 20.3395 9.83546 20.0012 10.4389L16.7281 16.3726ZM17.6515 10.9143H6.54291L8.70976 15.4857H15.1281L17.6515 10.9143ZM7.31091 21.8857C6.30519 21.8857 5.49148 22.7086 5.49148 23.7143C5.49148 24.72 6.30519 25.5429 7.31091 25.5429C8.31662 25.5429 9.13948 24.72 9.13948 23.7143C9.13948 22.7086 8.31662 21.8857 7.31091 21.8857ZM14.6343 23.7143C14.6343 22.7086 15.4481 21.8857 16.4538 21.8857C17.4595 21.8857 18.2823 22.7086 18.2823 23.7143C18.2823 24.72 17.4595 25.5429 16.4538 25.5429C15.4481 25.5429 14.6343 24.72 14.6343 23.7143Z" fill="white"/>
<circle cx="20" cy="7" r="7" fill="#3CD3C1"/>
<path d="M16.8847 5.2V4.168H18.8127V10H17.6607V5.2H16.8847ZM20.2711 8.736C20.7831 8.30933 21.1911 7.95467 21.4951 7.672C21.7991 7.384 22.0525 7.08533 22.2551 6.776C22.4578 6.46667 22.5591 6.16267 22.5591 5.864C22.5591 5.592 22.4951 5.37867 22.3671 5.224C22.2391 5.06933 22.0418 4.992 21.7751 4.992C21.5085 4.992 21.3031 5.08267 21.1591 5.264C21.0151 5.44 20.9405 5.68267 20.9351 5.992H19.8471C19.8685 5.352 20.0578 4.86667 20.4151 4.536C20.7778 4.20533 21.2365 4.04 21.7911 4.04C22.3991 4.04 22.8658 4.20267 23.1911 4.528C23.5165 4.848 23.6791 5.272 23.6791 5.8C23.6791 6.216 23.5671 6.61333 23.3431 6.992C23.1191 7.37067 22.8631 7.70133 22.5751 7.984C22.2871 8.26133 21.9111 8.59733 21.4471 8.992H23.8071V9.92H19.8551V9.088L20.2711 8.736Z" fill="white"/>
</svg>
